<svg width="721" height="272" viewBox="0 0 721 272" fill="none" xmlns="http://www.w3.org/2000/svg">
<g clip-path="url(#clip0_191_65)">
<path d="M75.8016 81.4341L45.5053 51.2617C40.0998 54.2783 35.0322 57.8163 30.3654 61.8164L58.8963 89.9095L59.8502 90.8534C64.8284 87.0448 70.522 84.1305 76.6959 82.3285L75.8016 81.4341Z" fill="#231F20"/>
<path d="M123.768 91.2924L152.061 63.1465C147.503 59.0606 142.528 55.4269 137.219 52.3047L107.482 82.1932L106.972 82.7048C113.047 84.6454 118.628 87.6785 123.49 91.5697L123.768 91.2924Z" fill="#231F20"/>
<path d="M80.0577 69.0377C93.8297 82.8103 90.3519 82.8103 104.127 69.0377C108.731 64.4369 119.217 53.8789 126.252 46.8127C120.612 44.443 114.683 42.608 108.536 41.3935L92.0941 57.6678L74.9338 40.9248C68.6506 41.9875 62.5827 43.6806 56.8063 45.9381C63.0233 52.1429 74.6258 63.6052 80.0577 69.0377Z" fill="#2D73B9"/>
<path d="M58.9096 173.129L30.3819 201.232C35.0454 205.232 40.1164 208.771 45.5218 211.78L75.8281 181.608L76.5269 180.915C70.363 179.093 64.686 176.156 59.7243 172.334L58.9096 173.129Z" fill="#231F20"/>
<path d="M107.463 180.849L137.199 210.745C142.515 207.622 147.483 203.989 152.048 199.909L123.755 171.753L123.619 171.618C118.774 175.523 113.206 178.569 107.145 180.526L107.463 180.849Z" fill="#231F20"/>
<path d="M80.0577 194.028C74.6258 199.454 63.0365 210.906 56.8163 217.108C62.5993 219.362 68.6672 221.055 74.9537 222.114L92.0908 205.394L108.506 221.639H108.512C114.663 220.428 120.592 218.599 126.236 216.233C119.204 209.167 108.724 198.619 104.124 194.028C90.3552 180.249 93.8297 180.249 80.0577 194.028Z" fill="#2D73B9"/>
<path d="M49.4169 99.1477L21.29 70.751C17.2293 75.3319 13.6224 80.3156 10.5355 85.6424L40.59 115.646L41.8122 116.871C43.6538 110.749 46.6115 105.112 50.447 100.184L49.4169 99.1477Z" fill="#221E54"/>
<path d="M40.5867 147.386L10.5288 177.384C13.6158 182.71 17.2227 187.701 21.29 192.288L49.4268 163.891L50.341 162.967C46.5155 158.023 43.5776 152.36 41.7559 146.218L40.5867 147.386Z" fill="#221E54"/>
<path d="M27.7521 143.508C34.5784 136.732 38.0363 134.145 38.1125 131.613V131.419C38.033 128.891 34.5751 126.306 27.7521 119.521C23.1813 114.983 12.2975 104.147 5.00747 96.8965C2.67239 102.596 0.90701 108.573 -0.24231 114.778L16.3384 131.514L-0.189314 148.505V148.512C0.973255 154.716 2.7585 160.693 5.11345 166.387C11.8073 159.65 22.7573 148.465 27.7521 143.508Z" fill="#2D73B9"/>
<path d="M140.316 147.38C138.365 153.43 135.321 158.984 131.416 163.823L131.486 163.892L159.622 192.295C163.683 187.708 167.29 182.711 170.374 177.384L140.316 147.38Z" fill="#221E54"/>
<path d="M140.319 115.656L170.37 85.6421C167.283 80.3152 163.683 75.3349 159.622 70.7539L131.486 99.1473L131.307 99.3289C135.225 104.147 138.279 109.689 140.253 115.722L140.319 115.656Z" fill="#221E54"/>
<path d="M181.145 114.788C179.999 108.583 178.23 102.599 175.902 96.8994C168.612 104.147 157.721 114.982 153.157 119.524C146.245 126.389 142.787 128.956 142.787 131.517C142.787 134.085 146.245 136.653 153.157 143.511C158.145 148.468 169.092 159.653 175.789 166.386C178.141 160.693 179.926 154.709 181.095 148.508L164.567 131.517L181.145 114.788Z" fill="#2D73B9"/>
<path d="M110.874 126.495C110.735 126.442 110.579 126.475 110.434 126.512L107.946 127.096C107.562 127.185 107.158 127.274 106.78 127.162C106.161 126.98 106.383 126.251 106.035 125.799C105.551 125.172 104.819 124.795 104.299 124.191C103.76 123.564 103.346 122.832 103.001 122.082C102.153 120.238 101.55 118.376 100.454 116.65C100.53 116.772 100.719 116.775 100.838 116.693C100.957 116.607 101.017 116.468 101.063 116.33C101.285 115.653 101.229 114.888 100.904 114.251C100.868 114.175 100.822 114.099 100.749 114.062C100.656 114.02 100.547 114.043 100.447 114.062C99.8876 114.168 99.2517 113.93 98.6654 113.96C98.0825 113.996 97.5095 114.115 96.9232 114.079C96.0488 114.033 94.9161 113.63 94.1278 113.254C93.5647 112.987 92.5876 112.584 92.2962 113.455C92.1703 113.822 92.263 114.33 91.9219 114.511C91.6139 114.673 91.2661 114.393 90.9382 114.267C90.2029 113.987 89.9511 113.934 89.3881 113.389C88.9708 112.977 86.4204 112.822 86.6522 112.102C86.692 111.977 86.788 111.881 86.8642 111.779C87.0861 111.482 87.2915 110.29 86.9768 109.973C86.8642 109.858 86.6986 109.818 86.5429 109.792C86.0693 109.719 85.5857 109.765 85.1055 109.812C83.4991 109.963 81.7105 109.61 80.2896 110.571C80.018 110.752 79.7729 110.98 79.4781 111.122C79.1601 111.277 78.2791 111.317 77.9346 111.241C77.6498 111.175 77.5173 110.795 77.2324 110.736C76.5932 110.6 76.5965 111.637 76.305 111.93C75.4836 112.746 74.4668 113.046 74.4569 114.422C74.4569 114.637 74.4834 114.855 74.4204 115.062C74.3045 115.422 73.9501 115.633 73.6321 115.838C72.0589 116.855 70.9029 118.488 70.2835 120.244C70.2206 120.432 70.1577 120.637 70.2206 120.828C70.2604 120.957 70.3531 121.063 70.426 121.178C71.0851 122.218 70.3862 123.805 69.8496 124.729C69.8099 124.792 69.7735 124.871 69.8 124.944C69.8298 125.023 69.9291 125.046 70.0086 125.089C70.2504 125.231 70.2339 125.581 70.257 125.861C70.363 127.086 71.7608 127.373 72.241 128.376C72.3271 128.561 72.3768 128.762 72.4828 128.937C72.7445 129.38 73.1651 129.489 73.556 129.756C73.9799 130.046 74.3111 130.446 74.7616 130.716C75.212 130.984 75.7486 131.149 76.2686 131.056C76.6031 131 76.9145 130.842 77.2523 130.776C77.9976 130.634 78.766 130.967 79.5212 130.862C80.6307 130.703 81.4389 130.007 82.6247 130.069C82.7638 130.079 82.9095 130.096 83.0254 130.178C83.2109 130.314 83.254 130.568 83.3599 130.769C83.9263 131.852 85.8308 130.337 86.0461 131.928C86.0892 132.271 85.9898 132.614 85.8938 132.944C85.801 133.251 85.7083 133.555 85.6155 133.862C85.334 134.792 86.0859 135.235 86.6191 135.825C87.1723 136.449 87.5962 137.179 87.8512 137.967C88.0533 138.608 88.1526 139.271 88.2454 139.938C88.2785 140.179 88.3149 140.429 88.2321 140.66C88.1692 140.845 88.04 141 87.9241 141.159C87.3047 142.01 86.8576 143.713 87.2285 144.717C87.3511 145.05 87.5863 145.331 87.7883 145.624C88.7422 146.997 88.6263 148.39 89.09 149.902C89.3881 150.882 91.5443 153.113 90.9216 154.077C90.8587 154.169 90.8885 154.294 90.9249 154.403C91.0342 154.743 91.1535 155.08 91.2826 155.417C91.4847 155.334 91.7 155.493 91.9053 155.572C92.581 155.832 93.2203 155.278 93.8694 155.199C94.5484 155.113 95.2175 155.304 95.9064 155.139C96.5125 154.991 97.0458 154.621 97.493 154.189C98.5065 153.212 100.119 151.222 100.08 149.746C100.08 149.707 100.076 149.671 100.076 149.631C100.076 149.568 100.083 149.506 100.106 149.449C100.166 149.317 100.308 149.251 100.441 149.195C101.593 148.697 101.901 148.014 101.554 146.71C101.461 146.36 101.11 145.987 101.385 145.624C101.487 145.489 101.633 145.397 101.766 145.291C102.127 145.001 102.385 144.591 102.769 144.324C103.23 144 103.839 143.908 104.233 143.515C104.588 143.159 104.694 142.631 104.71 142.132C104.733 141.288 104.932 140.116 104.478 139.357C104.326 139.099 104.111 138.875 104.048 138.571C103.988 138.274 104.121 137.997 103.975 137.697C103.902 137.545 103.779 137.413 103.733 137.254C103.663 137.027 103.756 136.786 103.856 136.571C104.23 135.779 104.783 135.159 105.363 134.518C106.204 133.584 107.327 132.931 108.274 132.112C109.271 131.248 109.867 130 110.457 128.842C110.626 128.472 111.54 126.739 110.874 126.495Z" fill="#2D73B9"/>
<path d="M109.41 141.014C109.264 141.159 109.195 141.364 109.082 141.539C109.076 141.549 109.066 141.562 109.059 141.572C108.989 141.674 108.91 141.766 108.837 141.865C108.516 142.308 108.38 142.813 107.837 143.05C107.3 143.285 106.863 143.232 106.582 143.809C106.224 144.542 106.737 145.146 106.509 145.826C106.396 146.162 106.118 146.427 106.008 146.763C105.836 147.304 106.277 147.539 106.273 148.007C106.273 148.522 106.611 149.268 107.204 149.357C107.532 149.407 108.38 149.073 108.602 148.823C108.923 148.463 109.019 147.74 109.135 147.281C109.135 146.714 109.46 145.997 109.599 145.443C109.741 144.882 109.884 144.318 110.026 143.756C110.046 143.684 110.073 143.595 110.149 143.575C110.202 143.558 110.261 143.578 110.311 143.552C110.367 143.519 110.367 143.443 110.361 143.377C110.334 143.06 110.149 140.268 109.41 141.014Z" fill="#2D73B9"/>
<path d="M263.608 87.5859C276.194 87.5859 286.746 91.7907 295.269 100.203C303.791 108.616 308.05 119.055 308.05 131.518C308.05 143.983 303.807 154.403 295.328 162.776C286.843 171.152 276.313 175.337 263.727 175.337C251.061 175.337 240.469 171.172 231.95 162.835C223.428 154.498 219.168 144.063 219.168 131.518C219.168 119.055 223.428 108.616 231.95 100.203C240.466 91.7907 251.018 87.5859 263.608 87.5859ZM229.367 131.518C229.367 141.257 232.646 149.436 239.2 156.056C245.755 162.677 253.913 165.987 263.667 165.987C273.266 165.987 281.361 162.657 287.959 155.997C294.553 149.34 297.849 141.178 297.849 131.518C297.849 121.781 294.573 113.603 288.015 106.982C281.46 100.362 273.342 97.0482 263.667 97.0482C253.913 97.0482 245.755 100.359 239.2 106.982C232.646 113.603 229.367 121.785 229.367 131.518Z" fill="#221E54"/>
<path d="M318.603 117.148H328.453V126.261C330.798 122.64 333.302 120 335.962 118.343C338.615 116.693 341.745 115.864 345.342 115.864C353.003 115.864 358.316 119.099 361.29 125.564C365.116 119.099 370.706 115.864 378.059 115.864C384.468 115.864 388.867 117.422 391.255 120.538C393.637 123.653 395.064 126.244 395.531 128.307C396.001 130.373 396.233 133.508 396.233 137.713V173.585H386.502V139.383V133.644C386.032 130.99 384.846 128.884 382.952 127.317C381.06 125.756 378.689 124.977 375.847 124.977C371.74 124.977 368.464 126.383 366.016 129.195C363.569 132.007 362.35 135.792 362.35 140.555V173.582H352.731V139.383V133.993C352.337 131.264 351.171 129.076 349.237 127.435C347.306 125.795 344.918 124.977 342.079 124.977C337.893 124.977 334.581 126.459 332.133 129.426C329.685 132.393 328.46 136.495 328.46 141.723V173.582H318.609V117.148H318.603Z" fill="#221E54"/>
<path d="M409.598 117.148H419.448V126.498C423.986 119.254 430.044 115.63 437.625 115.63C443.723 115.63 448.529 117.481 452.05 121.181C455.567 124.884 457.326 130.472 457.326 137.951V173.585H447.711V140.284C447.711 137.558 447.555 135.535 447.241 134.211C446.774 131.247 445.366 128.835 443.021 126.963C440.676 125.095 437.864 124.158 434.581 124.158C429.964 124.158 426.291 125.795 423.555 129.066C420.819 132.337 419.452 136.739 419.452 142.267V173.582H409.601V117.148H409.598Z" fill="#221E54"/>
<path d="M475.967 94.127C477.842 94.127 479.445 94.7903 480.773 96.1138C482.104 97.4373 482.77 98.9951 482.77 100.787C482.77 102.734 482.108 104.371 480.773 105.695C479.445 107.018 477.842 107.682 475.967 107.682C474.092 107.682 472.486 107.018 471.158 105.695C469.829 104.371 469.164 102.734 469.164 100.787C469.164 98.9951 469.826 97.4373 471.158 96.1138C472.486 94.7903 474.092 94.127 475.967 94.127ZM471.042 117.263H480.892V173.581H471.042V117.263Z" fill="#221E54"/>
<path d="M492.733 89.3389H517.945C522.089 89.3389 526.232 89.6326 530.376 90.2168C534.519 90.801 538.232 93.0188 541.518 96.8737C544.8 100.729 546.44 105.385 546.44 110.841C546.44 119.099 542.882 124.861 535.771 128.135C541.163 129.152 545.386 131.505 548.434 135.205C551.481 138.904 553.004 143.558 553.004 149.165C553.004 156.723 550.467 162.684 545.383 167.044C540.302 171.407 533.307 173.585 524.394 173.585H492.73V89.3389H492.733ZM510.089 123.459H517.594C521.423 123.459 524.434 122.524 526.623 120.653C528.809 118.785 529.905 116.25 529.905 113.059C529.905 109.943 528.826 107.531 526.683 105.815C524.53 104.102 521.188 103.247 516.653 103.247H510.085V123.459H510.089ZM510.089 159.684H520.764C525.374 159.684 529.008 158.667 531.668 156.641C534.324 154.618 535.655 151.812 535.655 148.228C535.655 145.502 534.794 143.126 533.075 141.099C531.353 139.073 529.674 137.928 528.034 137.654C526.391 137.38 524.868 137.185 523.46 137.069C522.052 136.951 520.92 136.894 520.058 136.894H510.089V159.684Z" fill="#221E54"/>
<path d="M563.328 148.578C569.638 156.759 576.455 160.848 583.778 160.848C587.514 160.848 590.651 159.779 593.184 157.637C595.715 155.492 596.983 152.825 596.983 149.63C596.983 146.752 595.93 144.568 593.827 143.089C591.724 141.61 588.04 139.914 582.781 138.003C577.518 136.095 573.994 134.673 572.202 133.739C570.41 132.805 567.836 130.897 564.484 128.016C561.133 125.131 559.46 120.303 559.46 113.527C559.46 106.048 562.113 99.8965 567.422 95.0647C572.725 90.2362 579.522 87.8203 587.792 87.8203C598.093 87.8203 606.449 91.6356 612.862 99.2694L603.717 110.372C598.881 104.61 593.698 101.722 588.16 101.722C585.046 101.722 582.43 102.619 580.326 104.411C578.22 106.204 577.17 108.501 577.17 111.306C577.17 113.719 577.892 115.59 579.339 116.917C580.784 118.24 582.132 119.217 583.384 119.838C584.632 120.461 587.196 121.455 591.064 122.815C594.933 124.181 598 125.409 600.269 126.498C602.535 127.59 605.446 129.534 609.003 132.34C612.56 135.142 614.339 140.208 614.339 147.531C614.339 155.71 611.527 162.406 605.9 167.628C600.269 172.849 592.999 175.456 584.086 175.456C572.202 175.456 562.59 170.628 555.24 160.967L563.328 148.578Z" fill="#221E54"/>
<path d="M640.018 89.3389H622.662V173.588H640.018V89.3389Z" fill="#221E54"/>
<path d="M711.309 110.138L707.908 107.917C703.685 105.267 698.918 103.943 693.602 103.943C685.786 103.943 679.257 106.593 674.018 111.891C668.781 117.188 666.161 123.772 666.161 131.637C666.161 139.66 668.758 146.34 673.961 151.674C679.161 157.01 685.666 159.681 693.486 159.681C695.282 159.681 697.1 159.506 698.938 159.156C700.773 158.803 702.416 158.298 703.863 157.638C705.311 156.974 706.54 156.331 707.557 155.707C708.573 155.086 709.825 154.189 711.309 153.02L719.868 165.872C717.678 167.506 715.943 168.717 714.648 169.493C713.359 170.275 710.799 171.46 706.967 173.057C703.135 174.651 697.898 175.45 691.254 175.45C678.9 175.45 668.698 171.364 660.65 163.186C652.598 155.004 648.574 144.568 648.574 131.868C648.574 119.326 652.714 108.848 661.001 100.435C669.288 92.0221 679.605 87.8174 691.96 87.8174C694.851 87.8174 697.527 88.0319 699.995 88.461C702.452 88.8933 705.016 89.5897 707.672 90.5666C710.332 91.5403 712.286 92.3753 713.538 93.0749C714.787 93.7779 716.98 95.2202 720.106 97.3985L711.309 110.138Z" fill="#221E54"/>
<path d="M581.757 188.654H588.825C590.723 188.654 592.353 188.78 593.711 189.021C595.072 189.265 596.427 190.182 597.772 191.767C599.116 193.354 599.792 195.15 599.792 197.159C599.792 200.331 598.444 202.556 595.755 203.839C600.401 204.754 602.727 207.559 602.727 212.252C602.727 215.054 601.971 217.137 600.454 218.49C598.941 219.846 597.632 220.708 596.533 221.074C595.43 221.437 594.039 221.622 592.356 221.622H581.757V188.654ZM585.752 202.737H589.65C591.671 202.737 593.214 202.275 594.287 201.364C595.357 200.447 595.894 199.123 595.894 197.387C595.894 193.885 593.641 192.13 589.15 192.13H585.752V202.737ZM585.752 218.143H591.379C593.724 218.143 595.539 217.642 596.818 216.635C598.103 215.629 598.742 214.163 598.742 212.246C598.742 208.219 596.122 206.209 590.876 206.209H585.755V218.143H585.752Z" fill="#221E54"/>
<path d="M625.259 188.654H628.747L642.559 221.619L638.283 221.622L634.401 212.477H619.585L615.77 221.622L611.494 221.619L625.259 188.654ZM620.99 209.001H633.046L627.952 196.252C627.498 195.12 627.184 193.978 627.005 192.816C626.909 193.512 626.799 194.093 626.677 194.546C626.551 195.004 626.352 195.565 626.071 196.235L620.99 209.001Z" fill="#221E54"/>
<path d="M652.975 188.654H656.374L676.581 212.962L677.797 214.579C677.979 214.942 678.158 215.272 678.327 215.563C678.496 215.85 678.628 216.12 678.717 216.361C678.32 214.563 678.125 213.13 678.125 212.064V188.654H682.116V221.619L678.883 221.639L658.43 197.255C657.851 196.555 657.45 196.021 657.221 195.654C656.993 195.291 656.711 194.76 656.377 194.057C656.774 195.885 656.973 197.199 656.973 197.991V221.622H652.982V188.654H652.975Z" fill="#221E54"/>
<path d="M696.52 188.655H700.512V221.619H696.52V188.655ZM713.601 188.625L718.775 188.655L705.559 204.431L720.106 221.619L715.062 221.616L700.621 204.335L713.601 188.625Z" fill="#221E54"/>
</g>
<defs>
<clipPath id="clip0_191_65">
<rect width="721" height="272" fill="white"/>
</clipPath>
</defs>
</svg>
